<svg width="36" height="36" viewBox="0 0 36 36" fill="none" xmlns="http://www.w3.org/2000/svg">
<g clip-path="url(#clip0_15419_590)">
<path d="M25.1901 20.4C25.4769 19.6325 25.6226 18.8194 25.6201 18C25.6201 16.1806 24.8974 14.4358 23.6109 13.1493C22.3244 11.8628 20.5795 11.14 18.7601 11.14C17.9508 11.1412 17.1483 11.2868 16.3901 11.57L18.0001 13.23C18.245 13.1917 18.4923 13.1716 18.7401 13.17C20.0266 13.1673 21.2618 13.6738 22.1761 14.5787C23.0905 15.4837 23.6096 16.7136 23.6201 18C23.6185 18.2478 23.5984 18.4952 23.5601 18.74L25.1901 20.4Z" fill="#828282"/>
<path d="M34.29 17.53C30.92 11.3 25.01 7.53003 18.47 7.53003C16.6893 7.53387 14.9206 7.82079 13.23 8.38003L14.84 10C16.0259 9.69376 17.2452 9.53589 18.47 9.53003C24.1 9.53003 29.22 12.67 32.27 17.96C31.1501 19.9219 29.6671 21.6527 27.9 23.06L29.32 24.48C31.3666 22.8299 33.066 20.7907 34.32 18.48L34.58 18L34.29 17.53Z" fill="#828282"/>
<path d="M4.86988 5.77998L9.32988 10.24C6.51022 12.0544 4.20604 14.5652 2.63988 17.53L2.37988 18L2.63988 18.48C6.00988 24.71 11.9199 28.48 18.4599 28.48C21.0127 28.4805 23.5324 27.9027 25.8299 26.79L30.8299 31.79L32.5799 30.29L6.57988 4.28998L4.86988 5.77998ZM14.6199 15.53L21.2699 22.18C20.5187 22.6455 19.6536 22.8947 18.7699 22.9C18.1278 22.9 17.4921 22.773 16.8993 22.5264C16.3064 22.2798 15.7682 21.9184 15.3156 21.463C14.863 21.0076 14.5049 20.4672 14.2619 19.8729C14.019 19.2785 13.8959 18.642 13.8999 18C13.9106 17.1265 14.1596 16.2725 14.6199 15.53ZM13.1699 14.08C12.2343 15.3994 11.7958 17.0073 11.932 18.619C12.0682 20.2307 12.7703 21.7422 13.914 22.8859C15.0577 24.0296 16.5692 24.7317 18.1809 24.8679C19.7926 25.0041 21.4005 24.5655 22.7199 23.63L24.3199 25.23C22.4677 26.022 20.4742 26.4302 18.4599 26.43C12.8299 26.43 7.70988 23.29 4.65988 18C6.12395 15.4085 8.23189 13.2385 10.7799 11.7L13.1699 14.08Z" fill="#828282"/>
</g>
<defs>
<clipPath id="clip0_15419_590">
<rect width="36" height="36" fill="white"/>
</clipPath>
</defs>
</svg>
