<svg width="34" height="34" viewBox="0 0 34 34" fill="none" xmlns="http://www.w3.org/2000/svg">
<path fill-rule="evenodd" clip-rule="evenodd" d="M4.29754 17.182C4.08116 16.7809 4.08116 16.2944 4.29754 15.8934C6.90508 11.0711 11.7219 6.89099 16.5387 6.89099C21.3555 6.89099 26.1723 11.0711 28.7798 15.8947C28.9962 16.2958 28.9962 16.7823 28.7798 17.1834C26.1723 22.0057 21.3555 26.1857 16.5387 26.1857C11.7219 26.1857 6.90508 22.0057 4.29754 17.182Z" stroke="#828282" stroke-width="2.06729" stroke-linecap="round" stroke-linejoin="round"/>
<path d="M19.462 13.6147C21.0766 15.2294 21.0766 17.8473 19.462 19.4619C17.8473 21.0766 15.2295 21.0766 13.6148 19.4619C12.0001 17.8473 12.0001 15.2294 13.6148 13.6147C15.2295 12.0001 17.8473 12.0001 19.462 13.6147" stroke="#828282" stroke-width="1.96889" stroke-linecap="round" stroke-linejoin="round"/>
</svg>
